<svg class="icon" viewBox="0 0 1024 1024" xmlns="http://www.w3.org/2000/svg">
    <path
        d="M1014.766018 494.317035l-131.941742-91.941821a133.22174 133.22174 0 0 0-53.165896-21.953957 133.20774 133.20774 0 0 0 22.069956-53.117896l28.285945-158.309691c2.637995-14.767971-10.23998-27.645946-25.007951-25.007951l-158.309691 28.283945A133.20774 133.20774 0 0 0 643.578743 194.33962a133.23974 133.23974 0 0 0-21.953957-53.165896L529.682965 9.231982c-8.575983-12.307976-26.789948-12.307976-35.36593 0l-91.941821 131.941742a133.20974 133.20974 0 0 0-21.953957 53.165896 133.20774 133.20774 0 0 0-53.117896-22.069956L168.99367 143.985719c-14.767971-2.637995-27.645946 10.23998-25.007951 25.007951l28.283945 158.309691a133.20774 133.20774 0 0 0 22.069956 53.117896 133.23974 133.23974 0 0 0-53.165896 21.953957L9.229982 494.317035c-12.307976 8.575983-12.307976 26.789948 0 35.36593l131.941742 91.941821a133.20974 133.20974 0 0 0 53.165896 21.953957 133.20774 133.20774 0 0 0-22.069956 53.117896l-28.283945 158.309691c-2.637995 14.767971 10.23998 27.645946 25.007951 25.007951l158.309691-28.285945a133.20774 133.20774 0 0 0 53.117896-22.069956 133.25174 133.25174 0 0 0 21.953957 53.165896l91.941821 131.941742c8.575983 12.307976 26.789948 12.307976 35.36593 0l91.941821-131.941742a133.20974 133.20974 0 0 0 21.953957-53.165896 133.20774 133.20774 0 0 0 53.117896 22.069956l158.309691 28.283945c14.767971 2.637995 27.645946-10.23998 25.007951-25.007951l-28.285945-158.309691a133.20774 133.20774 0 0 0-22.069956-53.117896 133.25174 133.25174 0 0 0 53.165896-21.953957l131.941742-91.941821c12.311976-8.573983 12.311976-26.785948 0.002-35.36393z"
        fill="#FC9F65" p-id="13265"></path>
    <path
        d="M511.999 512.001m-304.339406 0a304.339406 304.339406 0 1 0 608.678812 0 304.339406 304.339406 0 1 0-608.678812 0Z"
        fill="#FBDD56" p-id="13266"></path>
    <path d="M304.983404 484.881053a55.797891 44.439913 0 1 0 111.595782 0 55.797891 44.439913 0 1 0-111.595782 0Z"
        fill="#FF6E6E" p-id="13267"></path>
    <path d="M607.420814 484.881053a55.797891 44.439913 0 1 0 111.595782 0 55.797891 44.439913 0 1 0-111.595782 0Z"
        fill="#FF6E6E" p-id="13268"></path>
    <path
        d="M370.105277 447.407126a14.999971 14.999971 0 0 1-14.999971-14.999971v-23.949953c0-8.283984 6.713987-14.999971 14.999971-14.99997s14.999971 6.715987 14.999971 14.99997v23.949953a14.999971 14.999971 0 0 1-14.999971 14.999971zM511.999 491.157041c-22.325956 0-40.425921-18.099965-40.425921-40.425921v-29.389943a11.035978 11.035978 0 0 1 11.035978-11.035978h58.779886a11.035978 11.035978 0 0 1 11.035978 11.035978v29.389943c0.002 22.327956-18.099965 40.425921-40.425921 40.425921zM653.892723 447.407126a14.999971 14.999971 0 0 1-14.999971-14.999971v-23.949953c0-8.283984 6.713987-14.999971 14.999971-14.99997s14.999971 6.715987 14.999971 14.99997v23.949953a14.999971 14.999971 0 0 1-14.999971 14.999971z"
        fill="#414B58" p-id="13269"></path>
    <path
        d="M434.627151 217.601575c-130.603745 34.231933-226.963557 153.057701-226.963557 294.399425 0 168.079672 136.255734 304.335406 304.337406 304.335406 60.105883 0 116.135773-17.431966 163.325681-47.503908-387.959242-32.713936-420.141179-420.187179-240.69953-551.230923z"
        opacity=".08" p-id="13270"></path>
    <path
        d="M345.023326 123.873758a15.007971 15.007971 0 0 1-13.863973-9.263982l-20.659959-49.877902a14.999971 14.999971 0 0 1 27.715945-11.479978l20.65996 49.877903a14.995971 14.995971 0 0 1-8.117984 19.597961 14.935971 14.935971 0 0 1-5.733989 1.145998zM108.861787 360.023297a14.935971 14.935971 0 0 1-5.733988-1.145998l-49.875903-20.65996a14.999971 14.999971 0 0 1-8.117984-19.597961 15.003971 15.003971 0 0 1 19.597962-8.117984l49.875902 20.659959a14.999971 14.999971 0 0 1 8.117984 19.597962 15.003971 15.003971 0 0 1-13.863973 9.263982zM58.995885 714.646604a15.007971 15.007971 0 0 1-13.863973-9.263982 14.995971 14.995971 0 0 1 8.117984-19.597961l49.875903-20.65996a14.995971 14.995971 0 0 1 19.597961 8.117984 14.995971 14.995971 0 0 1-8.117984 19.597962l-49.875902 20.659959a14.935971 14.935971 0 0 1-5.733989 1.145998zM324.351367 980.014086a14.999971 14.999971 0 0 1-13.851973-20.74396l20.659959-49.877902a14.999971 14.999971 0 1 1 27.715946 11.479977l-20.65996 49.877903a15.005971 15.005971 0 0 1-13.863972 9.263982zM699.646634 980.014086a15.007971 15.007971 0 0 1-13.863973-9.263982l-20.65996-49.877903a14.999971 14.999971 0 0 1 27.715946-11.479977l20.659959 49.877902a14.995971 14.995971 0 0 1-8.117984 19.597962 14.943971 14.943971 0 0 1-5.733988 1.145998zM965.004115 714.646604a14.935971 14.935971 0 0 1-5.733989-1.145998l-49.877902-20.659959a14.999971 14.999971 0 0 1-8.117984-19.597962 15.001971 15.001971 0 0 1 19.597961-8.117984l49.877903 20.65996a14.999971 14.999971 0 0 1 8.117984 19.597961 15.007971 15.007971 0 0 1-13.863973 9.263982zM915.136213 360.023297a15.007971 15.007971 0 0 1-13.863973-9.263982 14.995971 14.995971 0 0 1 8.117984-19.597962l49.877902-20.659959a14.999971 14.999971 0 0 1 11.479978 27.715945l-49.877903 20.65996a14.943971 14.943971 0 0 1-5.733988 1.145998zM678.974674 123.873758a14.999971 14.999971 0 0 1-13.851973-20.743959l20.65996-49.877903a15.003971 15.003971 0 0 1 19.597961-8.117984 14.999971 14.999971 0 0 1 8.117984 19.597962l-20.659959 49.877902a15.003971 15.003971 0 0 1-13.863973 9.263982z"
        fill="#FC9F65" p-id="13271"></path>
</svg>